<svg width="200" height="200" viewBox="0 0 200 200" fill="none" xmlns="http://www.w3.org/2000/svg">
<path d="M75 75C75.8288 75 76.6237 75.3292 77.2097 75.9153C77.7958 76.5013 78.125 77.2962 78.125 78.125L78.1187 78.2531L150.284 193.75H179.281L176.547 162.5H140.625C139.796 162.5 139.001 162.171 138.415 161.585C137.829 160.999 137.5 160.204 137.5 159.375C137.5 158.546 137.829 157.751 138.415 157.165C139.001 156.579 139.796 156.25 140.625 156.25H146.875V146.875C146.875 144.389 147.863 142.004 149.621 140.246C151.379 138.488 153.764 137.5 156.25 137.5C158.736 137.5 161.121 138.488 162.879 140.246C164.637 142.004 165.625 144.389 165.625 146.875V156.25H176L173.987 133.197C173.927 132.513 174.094 131.829 174.462 131.25H121.875C121.046 131.25 120.251 130.921 119.665 130.335C119.079 129.749 118.75 128.954 118.75 128.125C118.75 127.296 119.079 126.501 119.665 125.915C120.251 125.329 121.046 125 121.875 125H181.25C182.079 125 182.874 125.329 183.46 125.915C184.046 126.501 184.375 127.296 184.375 128.125C184.375 128.954 184.046 129.749 183.46 130.335C182.874 130.921 182.079 131.25 181.25 131.25H179.737C180.006 131.673 180.169 132.154 180.212 132.653L182.281 156.25H184.375C185.204 156.25 185.999 156.579 186.585 157.165C187.171 157.751 187.5 158.546 187.5 159.375C187.5 160.204 187.171 160.999 186.585 161.585C185.999 162.171 185.204 162.5 184.375 162.5H182.825L185.556 193.75H196.875C197.704 193.75 198.499 194.079 199.085 194.665C199.671 195.251 200 196.046 200 196.875C200 197.704 199.671 198.499 199.085 199.085C198.499 199.671 197.704 200 196.875 200H3.125C2.2962 200 1.50134 199.671 0.915291 199.085C0.32924 198.499 0 197.704 0 196.875C0 196.046 0.32924 195.251 0.915291 194.665C1.50134 194.079 2.2962 193.75 3.125 193.75H11.5438C11.5351 193.6 11.5372 193.45 11.55 193.3L14.2438 162.5H12.5C11.6712 162.5 10.8763 162.171 10.2903 161.585C9.70424 160.999 9.375 160.204 9.375 159.375C9.375 158.546 9.70424 157.751 10.2903 157.165C10.8763 156.579 11.6712 156.25 12.5 156.25H14.7906L17.2531 128.125H15.625C14.7962 128.125 14.0013 127.796 13.4153 127.21C12.8292 126.624 12.5 125.829 12.5 125C12.5 124.171 12.8292 123.376 13.4153 122.79C14.0013 122.204 14.7962 121.875 15.625 121.875H17.8L20.2594 93.75H18.75C17.9212 93.75 17.1263 93.4208 16.5403 92.8347C15.9542 92.2487 15.625 91.4538 15.625 90.625C15.625 89.7962 15.9542 89.0013 16.5403 88.4153C17.1263 87.8292 17.9212 87.5 18.75 87.5H20.8062L21.6281 78.1156C21.6841 77.458 21.9479 76.8353 22.3813 76.3375L22.65 76.0656C22.943 75.7306 23.3043 75.4622 23.7096 75.2784C24.115 75.0946 24.5549 74.9997 25 75H75ZM80.4313 93.75H26.5312L24.0719 121.875H34.375V112.5C34.375 110.014 35.3627 107.629 37.1209 105.871C38.879 104.113 41.2636 103.125 43.75 103.125C46.2364 103.125 48.621 104.113 50.3791 105.871C52.1373 107.629 53.125 110.014 53.125 112.5V121.875H62.5V112.5C62.5 110.014 63.4877 107.629 65.2459 105.871C67.004 104.113 69.3886 103.125 71.875 103.125C74.3614 103.125 76.746 104.113 78.5041 105.871C80.2623 107.629 81.25 110.014 81.25 112.5V121.875H90.625C91.4538 121.875 92.2487 122.204 92.8347 122.79C93.4208 123.376 93.75 124.171 93.75 125C93.75 125.829 93.4208 126.624 92.8347 127.21C92.2487 127.796 91.4538 128.125 90.625 128.125H23.525L21.0656 156.25H31.25V146.875C31.25 144.389 32.2377 142.004 33.9959 140.246C35.754 138.488 38.1386 137.5 40.625 137.5C43.1114 137.5 45.496 138.488 47.2541 140.246C49.0123 142.004 50 144.389 50 146.875V156.25H59.375V146.875C59.375 144.389 60.3627 142.004 62.1209 140.246C63.879 138.488 66.2636 137.5 68.75 137.5C71.2364 137.5 73.621 138.488 75.3791 140.246C77.1373 142.004 78.125 144.389 78.125 146.875V156.25H87.5V146.875C87.5 144.389 88.4877 142.004 90.2459 140.246C92.004 138.488 94.3886 137.5 96.875 137.5C99.3614 137.5 101.746 138.488 103.504 140.246C105.262 142.004 106.25 144.389 106.25 146.875V156.25H109.375C110.204 156.25 110.999 156.579 111.585 157.165C112.171 157.751 112.5 158.546 112.5 159.375C112.5 160.204 112.171 160.999 111.585 161.585C110.999 162.171 110.204 162.5 109.375 162.5H20.5187L17.7844 193.75H142.919L80.4313 93.75ZM37.5 171.875C39.9864 171.875 42.371 172.863 44.1291 174.621C45.8873 176.379 46.875 178.764 46.875 181.25V187.5C46.875 188.329 46.5458 189.124 45.9597 189.71C45.3737 190.296 44.5788 190.625 43.75 190.625C42.9212 190.625 42.1263 190.296 41.5403 189.71C40.9542 189.124 40.625 188.329 40.625 187.5V181.25C40.625 180.421 40.2958 179.626 39.7097 179.04C39.1237 178.454 38.3288 178.125 37.5 178.125C36.6712 178.125 35.8763 178.454 35.2903 179.04C34.7042 179.626 34.375 180.421 34.375 181.25V187.5C34.375 188.329 34.0458 189.124 33.4597 189.71C32.8737 190.296 32.0788 190.625 31.25 190.625C30.4212 190.625 29.6263 190.296 29.0403 189.71C28.4542 189.124 28.125 188.329 28.125 187.5V181.25C28.125 178.764 29.1127 176.379 30.8709 174.621C32.629 172.863 35.0136 171.875 37.5 171.875ZM65.625 171.875C68.1114 171.875 70.496 172.863 72.2541 174.621C74.0123 176.379 75 178.764 75 181.25V187.5C75 188.329 74.6708 189.124 74.0847 189.71C73.4987 190.296 72.7038 190.625 71.875 190.625C71.0462 190.625 70.2513 190.296 69.6653 189.71C69.0792 189.124 68.75 188.329 68.75 187.5V181.25C68.75 180.421 68.4208 179.626 67.8347 179.04C67.2487 178.454 66.4538 178.125 65.625 178.125C64.7962 178.125 64.0013 178.454 63.4153 179.04C62.8292 179.626 62.5 180.421 62.5 181.25V187.5C62.5 188.329 62.1708 189.124 61.5847 189.71C60.9987 190.296 60.2038 190.625 59.375 190.625C58.5462 190.625 57.7513 190.296 57.1653 189.71C56.5792 189.124 56.25 188.329 56.25 187.5V181.25C56.25 178.764 57.2377 176.379 58.9959 174.621C60.754 172.863 63.1386 171.875 65.625 171.875ZM93.75 171.875C96.2364 171.875 98.621 172.863 100.379 174.621C102.137 176.379 103.125 178.764 103.125 181.25V187.5C103.125 188.329 102.796 189.124 102.21 189.71C101.624 190.296 100.829 190.625 100 190.625C99.1712 190.625 98.3763 190.296 97.7903 189.71C97.2042 189.124 96.875 188.329 96.875 187.5V181.25C96.875 180.421 96.5458 179.626 95.9597 179.04C95.3737 178.454 94.5788 178.125 93.75 178.125C92.9212 178.125 92.1263 178.454 91.5403 179.04C90.9542 179.626 90.625 180.421 90.625 181.25V187.5C90.625 188.329 90.2958 189.124 89.7097 189.71C89.1237 190.296 88.3288 190.625 87.5 190.625C86.6712 190.625 85.8763 190.296 85.2903 189.71C84.7042 189.124 84.375 188.329 84.375 187.5V181.25C84.375 178.764 85.3627 176.379 87.1209 174.621C88.879 172.863 91.2636 171.875 93.75 171.875ZM121.875 171.875C124.361 171.875 126.746 172.863 128.504 174.621C130.262 176.379 131.25 178.764 131.25 181.25V187.5C131.25 188.329 130.921 189.124 130.335 189.71C129.749 190.296 128.954 190.625 128.125 190.625C127.296 190.625 126.501 190.296 125.915 189.71C125.329 189.124 125 188.329 125 187.5V181.25C125 180.421 124.671 179.626 124.085 179.04C123.499 178.454 122.704 178.125 121.875 178.125C121.046 178.125 120.251 178.454 119.665 179.04C119.079 179.626 118.75 180.421 118.75 181.25V187.5C118.75 188.329 118.421 189.124 117.835 189.71C117.249 190.296 116.454 190.625 115.625 190.625C114.796 190.625 114.001 190.296 113.415 189.71C112.829 189.124 112.5 188.329 112.5 187.5V181.25C112.5 178.764 113.488 176.379 115.246 174.621C117.004 172.863 119.389 171.875 121.875 171.875ZM162.5 171.875C164.986 171.875 167.371 172.863 169.129 174.621C170.887 176.379 171.875 178.764 171.875 181.25V187.5C171.875 188.329 171.546 189.124 170.96 189.71C170.374 190.296 169.579 190.625 168.75 190.625C167.921 190.625 167.126 190.296 166.54 189.71C165.954 189.124 165.625 188.329 165.625 187.5V181.25C165.625 180.421 165.296 179.626 164.71 179.04C164.124 178.454 163.329 178.125 162.5 178.125C161.671 178.125 160.876 178.454 160.29 179.04C159.704 179.626 159.375 180.421 159.375 181.25V187.5C159.375 188.329 159.046 189.124 158.46 189.71C157.874 190.296 157.079 190.625 156.25 190.625C155.421 190.625 154.626 190.296 154.04 189.71C153.454 189.124 153.125 188.329 153.125 187.5V181.25C153.125 178.764 154.113 176.379 155.871 174.621C157.629 172.863 160.014 171.875 162.5 171.875ZM156.25 143.75C155.421 143.75 154.626 144.079 154.04 144.665C153.454 145.251 153.125 146.046 153.125 146.875V156.25H159.375V146.875C159.375 146.046 159.046 145.251 158.46 144.665C157.874 144.079 157.079 143.75 156.25 143.75ZM40.625 143.75C39.7962 143.75 39.0013 144.079 38.4153 144.665C37.8292 145.251 37.5 146.046 37.5 146.875V156.25H43.75V146.875C43.75 146.046 43.4208 145.251 42.8347 144.665C42.2487 144.079 41.4538 143.75 40.625 143.75ZM68.75 143.75C67.9212 143.75 67.1263 144.079 66.5403 144.665C65.9542 145.251 65.625 146.046 65.625 146.875V156.25H71.875V146.875C71.875 146.046 71.5458 145.251 70.9597 144.665C70.3737 144.079 69.5788 143.75 68.75 143.75ZM96.875 143.75C96.0462 143.75 95.2513 144.079 94.6653 144.665C94.0792 145.251 93.75 146.046 93.75 146.875V156.25H100V146.875C100 146.046 99.6708 145.251 99.0847 144.665C98.4987 144.079 97.7038 143.75 96.875 143.75ZM43.75 109.375C42.9212 109.375 42.1263 109.704 41.5403 110.29C40.9542 110.876 40.625 111.671 40.625 112.5V121.875H46.875V112.5C46.875 111.671 46.5458 110.876 45.9597 110.29C45.3737 109.704 44.5788 109.375 43.75 109.375ZM71.875 109.375C71.0462 109.375 70.2513 109.704 69.6653 110.29C69.0792 110.876 68.75 111.671 68.75 112.5V121.875H75V112.5C75 111.671 74.6708 110.876 74.0847 110.29C73.4987 109.704 72.7038 109.375 71.875 109.375ZM72.6344 81.25H27.625L27.0781 87.5H76.525L72.7344 81.4375L72.6344 81.25Z" fill="white"/>
</svg>
